<?xml version="1.0" encoding="UTF-8"?><svg id="Layer_1" xmlns="http://www.w3.org/2000/svg" viewBox="0 0 64 64"><defs><style>.cls-1{fill:#129c69;}.cls-2{fill:#7f4b00;}.cls-3{fill:#0863a9;}.cls-4{fill:#ffb85a;}.cls-5{fill:#89aecc;}</style></defs><path class="cls-5" d="M28,2c0,2,2,2,2,2,0,0,2,0,2,2s-2,2-2,2h-4s-2,0-2,2,2,2,2,2h30.97C51.11,4.69,42.1,0,32,0c-.9,0-1.8.05-2.68.12-.58.19-1.32.66-1.32,1.88Z"/><path class="cls-1" d="M28,14c0,2-2,2-2,2h-12s-2,0-2,2,2,2,2,2h6s2,0,2,2-2,2-2,2h42.99c-1.15-4.45-3.23-8.52-6.02-12h-30.97s2,0,2,2Z"/><path class="cls-3" d="M10,24s-2,0-2,2,2,2,2,2h10s2,0,2,2-2,2-2,2h-6s-2,0-2,2,2,2,2,2h49.74c.16-1.31.26-2.64.26-4,0-2.76-.35-5.44-1.01-8H10Z"/><path class="cls-4" d="M24,38c0,2-2,2-2,2h-4s-2,0-2,2,2,2.01,2,2.01h4s2,0,2,1.99-2,2-2,2h37.71c2.09-3.61,3.49-7.67,4.03-12H22s2,0,2,2Z"/><path class="cls-2" d="M59.71,48H18s-2,0-2,2,2,2,2,2h8s2,0,2,2-2,2-2,2h-8s-2,0-2,2,2,2,2,2h12s2,0,2,2c0,1.42-1.01,1.83-1.59,1.95.53.03,1.06.05,1.59.05,11.84,0,22.17-6.44,27.71-16Z"/><circle class="cls-5" cx="22" cy="2" r="2"/><path class="cls-5" d="M14,8h4s2,0,2,2-2,2-2,2h-4s-2,0-2-2,2-2,2-2Z"/><path class="cls-3" d="M2,32h4s2,0,2,2-2,2-2,2H2s-2,0-2-2,2-2,2-2Z"/><circle class="cls-1" cx="6" cy="18" r="2"/><circle class="cls-3" cx="2" cy="26" r="2"/><circle class="cls-2" cx="10" cy="50" r="2"/><path class="cls-4" d="M6,40h4s2,0,2,2-2,2-2,2h-4s-2,0-2-2,2-2,2-2Z"/></svg>